<svg width="70" height="70" viewBox="0 0 70 70" fill="none" xmlns="http://www.w3.org/2000/svg">
<path fill-rule="evenodd" clip-rule="evenodd" d="M60.4364 42.1417C60.4456 42.4211 60.4502 42.7015 60.4502 42.983C60.4502 52.3573 55.3077 60.5433 47.6616 64.9301L62.2035 64.9046C67.3217 64.8956 70.5147 59.4127 67.9556 55.0272L60.4364 42.1417Z" fill="#F36B50"/>
<path d="M2.90761 55.1124C0.332759 59.5069 3.54343 65.009 8.67737 65L22.9518 64.9749C15.2623 60.5993 10.0846 52.3894 10.0846 42.983L10.0849 42.8632L2.90761 55.1124Z" fill="#F36B50"/>
<path d="M22.4334 20.8363C28.1283 17.432 30.6587 17.1006 35.2674 17.432C41.2761 17.432 48.4866 31.762 49.0089 42.7414C49.0089 50.4168 42.9272 56.6389 35.1695 56.6389C27.4118 56.6389 21.1229 50.4168 21.1229 42.7414C21.1229 35.066 26.0268 28.1445 39.0848 28.1445C36.21 24.8613 32.3653 23.2895 30.7277 23.4935C22.4334 24.5271 14.2044 33.7295 14.2044 42.7414C14.2044 54.1972 23.5908 63.484 35.1695 63.484C46.7482 63.484 56.1346 54.1972 56.1346 42.7414C56.4771 29.6411 48.5059 18.4776 41.4102 8.54008L41.2761 8.35227C38.0314 3.80796 32.3211 3.96114 29.7542 8.34215L22.4334 20.8363Z" fill="#F36B50"/>
</svg>
